Coordinates
version=1
nRows=25
nColumns=33
inDegrees=yes

Units are S.I. units (second, meters, Newtons, ...)
Angles are in degrees.

endheader
time	ground_thorax_rot_x	ground_thorax_rot_y	ground_thorax_rot_z	ground_thorax_tx	ground_thorax_ty	ground_thorax_tz	clav_prot_r	clav_elev_r	scapula_abduction_r	scapula_elevation_r	scapula_upward_rot_r	scapula_winging_r	shoulder_elv_r	plane_of_elev_r	axial_rot_r	elbow_flexion_r	pro_sup_r	wrist_flex_r	wrist_dev_r	clav_prot_l	clav_elev_l	scapula_abduction_l	scapula_elevation_l	scapula_upward_rot_l	scapula_winging_l	shoulder_elv_l	plane_of_elev_l	axial_rot_l	elbow_flexion_l	pro_sup_l	wrist_flex_l	wrist_dev_l	
5.3400	38.267339	4.959054	14.957050	-231.610476	853.588691	-6.645196	13.089358	36.445245	33.166138	45.000000	-45.000000	3155.237441	-2633.698961	149.600518	-106.234868	-347.049167	33.871781	18.416537	7.670519	11.892885	-45.000000	-34.635543	45.000000	-45.000000	-2418.939838	-644.411276	14.354711	-67.066765	10.167482	34.488246	9.092806	-22.187208	
5.3500	38.357365	4.940087	14.672626	-232.586689	855.053161	-6.612345	13.044015	36.462144	33.181633	45.000000	-45.000000	3155.126384	-2633.655709	149.487542	-106.605843	-346.988051	34.334425	18.459592	7.612002	11.890567	-45.000000	-34.667774	45.000000	-45.000000	-2418.832224	-644.382159	14.379355	-66.914896	10.179835	34.436091	9.137274	-22.268166	
5.3600	38.442257	4.928121	14.407480	-233.482968	856.467459	-6.573123	12.989528	36.481312	33.193837	45.000000	-45.000000	3155.021702	-2633.609349	149.374779	-106.984628	-346.934082	34.774679	18.526459	7.567203	11.874884	-45.000000	-34.696684	45.000000	-45.000000	-2418.723663	-644.357537	14.406902	-66.755222	10.185362	34.393394	9.183016	-22.356886	
5.3700	38.519131	4.936064	14.173874	-234.206174	857.773417	-6.519503	12.964572	36.481050	33.214909	45.000000	-45.000000	3154.934082	-2633.563472	149.288280	-107.261317	-346.881856	35.155529	18.548238	7.507715	11.896103	-45.000000	-34.742885	45.000000	-45.000000	-2418.631564	-644.325599	14.418385	-66.680676	10.204865	34.375936	9.191750	-22.406561	
5.3800	38.583807	4.965367	13.980155	-234.746170	858.964894	-6.450473	12.952957	36.475117	33.237463	45.000000	-45.000000	3154.869425	-2633.507534	149.225651	-107.469703	-346.824805	35.488569	18.554193	7.447826	11.933896	-45.000000	-34.796031	45.000000	-45.000000	-2418.549594	-644.285191	14.419632	-66.645773	10.234360	34.384024	9.171336	-22.431333	
5.3900	38.637729	5.013019	13.818714	-235.082023	860.029289	-6.363793	12.949675	36.455715	33.263877	45.000000	-44.999999	3154.810762	-2633.456289	149.171065	-107.628868	-346.770491	35.779361	18.547961	7.381171	11.987042	-45.000000	-34.859749	45.000000	-45.000000	-2418.479922	-644.244403	14.421269	-66.651530	10.272309	34.425390	9.129726	-22.440169	
5.4000	38.675088	5.082268	13.698119	-235.217165	860.970029	-6.259079	12.946214	36.438472	33.280799	45.000000	-44.999999	3154.778707	-2633.388064	149.131754	-107.749410	-346.704399	36.046576	18.539614	7.317861	12.046230	-45.000000	-34.931327	45.000000	-45.000000	-2418.420407	-644.196464	14.417801	-66.667835	10.321514	34.502432	9.063105	-22.433103	
5.4100	38.701135	5.161398	13.596784	-235.167316	861.798831	-6.137124	12.929761	36.405302	33.292010	45.000000	-44.999998	3154.737775	-2633.329843	149.074794	-107.876483	-346.637497	36.309657	18.536361	7.245089	12.112081	-45.000000	-35.014412	45.000000	-45.000000	-2418.369437	-644.155481	14.428485	-66.691124	10.378746	34.621953	8.990902	-22.429573	
5.4200	38.712386	5.254974	13.521170	-234.950161	862.529845	-5.999295	12.904745	36.377146	33.291628	45.000000	-44.999997	3154.719576	-2633.259999	149.028122	-107.995899	-346.560163	36.590956	18.534125	7.176431	12.177517	-45.000000	-35.099730	45.000000	-45.000000	-2418.334008	-644.110394	14.442935	-66.707950	10.443368	34.788310	8.900698	-22.417244	
5.4300	38.713383	5.357283	13.458688	-234.585031	863.178970	-5.847993	12.866505	36.342396	33.284275	45.000000	-44.999994	3154.702305	-2633.198326	148.976369	-108.128186	-346.489722	36.906482	18.536694	7.103879	12.247884	-45.000000	-35.189853	45.000000	-45.000000	-2418.312155	-644.073970	14.474898	-66.725798	10.506331	35.007456	8.803449	-22.405489	
5.4400	38.700831	5.469785	13.420563	-234.092240	863.763970	-5.686557	12.826221	36.325266	33.262661	45.000000	-44.999990	3154.716559	-2633.118305	148.940759	-108.251756	-346.413966	37.272055	18.542793	7.042746	12.312913	-45.000000	-35.277511	45.000000	-45.000000	-2418.307997	-644.034739	14.506864	-66.725984	10.567749	35.277538	8.687234	-22.383542	
5.4500	38.680756	5.578218	13.391236	-233.492456	864.303403	-5.519033	12.781655	36.306063	33.242463	45.000000	-44.999982	3154.727597	-2633.043717	148.897846	-108.382062	-346.340606	37.696527	18.556553	6.977306	12.379876	-45.000000	-35.368390	45.000000	-44.999999	-2418.313176	-644.004037	14.553065	-66.715733	10.626959	35.597797	8.567240	-22.365460	
5.4600	38.654186	5.675719	13.372270	-232.805939	864.816365	-5.349548	12.750877	36.304727	33.232651	45.000000	-44.999968	3154.750805	-2632.960787	148.864312	-108.498481	-346.257813	38.190246	18.572828	6.919171	12.433609	-45.000000	-35.452613	45.000000	-44.999999	-2418.335105	-643.970314	14.599339	-66.680583	10.687437	35.963482	8.435911	-22.344564	
5.4700	38.624347	5.750248	13.352494	-232.052081	865.321280	-5.181851	12.728938	36.305184	33.254432	45.000000	-44.999943	3154.759941	-2632.890069	148.830166	-108.612392	-346.167150	38.757843	18.597842	6.855005	12.479180	-45.000000	-35.531959	45.000000	-44.999998	-2418.361238	-643.939539	14.658510	-66.625676	10.748597	36.373734	8.305885	-22.332350	
5.4800	38.591966	5.798315	13.329367	-231.248774	865.835274	-5.018921	12.734244	36.317352	33.299847	45.000000	-44.999898	3154.757866	-2632.822771	148.786968	-108.712998	-346.059835	39.399799	18.622016	6.787579	12.505691	-45.000000	-35.609410	45.000000	-44.999997	-2418.397988	-643.902635	14.717253	-66.542373	10.816799	36.824627	8.173208	-22.325996	
5.4900	38.561921	5.817315	13.297970	-230.411815	866.373033	-4.863029	12.742689	36.321331	33.385146	45.000000	-44.999817	3154.731298	-2632.768757	148.741264	-108.816065	-345.939713	40.113792	18.651251	6.707853	12.526253	-45.000000	-35.682285	45.000000	-44.999994	-2418.432051	-643.866271	14.790787	-66.440038	10.896157	37.317707	8.049462	-22.335610	
5.5000	38.536053	5.812487	13.261521	-229.554385	866.946261	-4.716032	12.771715	36.331945	33.505175	45.000000	-44.999672	3154.685319	-2632.723681	148.697642	-108.916752	-345.810806	40.898258	18.675015	6.623809	12.531062	-45.000000	-35.741771	45.000000	-44.999989	-2418.473164	-643.823157	14.870142	-66.311104	10.984036	37.853529	7.925992	-22.352217	
5.5100	38.513110	5.796847	13.228287	-228.686566	867.563262	-4.579856	12.795478	36.341859	33.653085	45.000000	-44.999412	3154.630334	-2632.678575	148.672094	-109.026542	-345.678952	41.748615	18.700591	6.534986	12.530791	-45.000000	-35.789742	45.000000	-44.999980	-2418.509757	-643.777309	14.961600	-66.161005	11.078544	38.433480	7.806755	-22.377678	
5.5200	38.490165	5.771836	13.194422	-227.814871	868.229310	-4.456808	12.827785	36.354670	33.807456	45.000000	-44.998947	3154.565276	-2632.628354	148.640515	-109.150511	-345.542098	42.655575	18.719517	6.441726	12.522920	-45.000000	-35.838236	45.000000	-44.999965	-2418.550431	-643.723949	15.054123	-65.991258	11.179241	39.052824	7.686838	-22.406593	
5.5300	38.468873	5.741114	13.162247	-226.941756	868.947563	-4.349570	12.847819	36.362718	33.970255	45.000000	-44.998113	3154.497916	-2632.564729	148.614500	-109.293333	-345.401248	43.610232	18.738330	6.343861	12.513791	-45.000000	-35.887486	45.000000	-44.999937	-2418.588641	-643.667293	15.151104	-65.808902	11.289829	39.703445	7.571536	-22.442248	
5.5400	38.443563	5.707379	13.128752	-226.065777	869.720174	-4.260890	12.873225	36.373266	34.122505	45.000000	-44.996621	3154.428427	-2632.489254	148.572247	-109.457918	-345.260577	44.599528	18.750172	6.242630	12.498061	-45.000000	-35.947920	45.000000	-44.999887	-2418.632563	-643.601106	15.242738	-65.611966	11.397602	40.369833	7.456910	-22.477054	
5.5500	38.416164	5.672550	13.090345	-225.181567	870.549915	-4.193009	12.891547	36.379449	34.266840	45.000000	-44.993946	3154.359407	-2632.400667	148.521520	-109.643767	-345.116581	45.612194	18.761668	6.138513	12.481553	-45.000000	-36.016703	45.000000	-44.999798	-2418.678412	-643.526513	15.339362	-65.401645	11.504382	41.034130	7.348070	-22.513475	
5.5600	38.382740	5.638530	13.044991	-224.280693	871.441179	-4.147085	12.907422	36.385883	34.395987	45.000000	-44.989160	3154.293464	-2632.299945	148.456958	-109.853678	-344.965770	46.638247	18.771217	6.032328	12.462453	-45.000000	-36.104711	45.000000	-44.999637	-2418.729340	-643.438446	15.437915	-65.170323	11.605229	41.677981	7.241619	-22.547541	
5.5700	38.352901	5.599737	12.994616	-223.352329	872.400866	-4.122761	12.912588	36.388084	34.531125	45.000000	-44.980568	3154.225144	-2632.186444	148.390859	-110.085463	-344.806846	47.675341	18.782563	5.925156	12.447896	-45.000000	-36.200450	45.000000	-44.999351	-2418.777357	-643.343972	15.549048	-64.907866	11.711216	42.288038	7.139343	-22.582660	
5.5800	38.324383	5.556198	12.939789	-222.384673	873.438076	-4.118075	12.915329	36.392554	34.674828	45.000000	-44.965234	3154.153151	-2632.067288	148.323148	-110.340069	-344.646613	48.724701	18.791487	5.817058	12.431557	-45.000000	-36.305460	45.000000	-44.998836	-2418.826365	-643.241790	15.671357	-64.597191	11.808582	42.858691	7.039852	-22.614801	
